<mxfile host="app.diagrams.net" modified="2023-10-17T17:35:01.384Z" agent="Mozilla/5.0 (Windows NT 10.0; Win64; x64) AppleWebKit/537.36 (KHTML, like Gecko) Chrome/117.0.0.0 Safari/537.36" etag="kgD5yVRHRpIuFVky0Tg_" version="22.0.4" type="google">
  <diagram name="Página-1" id="oKIlooJLRSVnscNaMvM3">
    <mxGraphModel grid="0" page="0" gridSize="10" guides="1" tooltips="1" connect="1" arrows="1" fold="1" pageScale="1" pageWidth="827" pageHeight="1169" math="0" shadow="0">
      <root>
        <mxCell id="0" />
        <mxCell id="1" parent="0" />
        <mxCell id="tMBw2Dmk8AOAFGk_S65z-1" style="edgeStyle=orthogonalEdgeStyle;rounded=0;orthogonalLoop=1;jettySize=auto;html=1;entryX=0.5;entryY=0;entryDx=0;entryDy=0;" edge="1" parent="1" source="tMBw2Dmk8AOAFGk_S65z-3" target="tMBw2Dmk8AOAFGk_S65z-5">
          <mxGeometry relative="1" as="geometry" />
        </mxCell>
        <mxCell id="tMBw2Dmk8AOAFGk_S65z-2" value="Text" style="edgeLabel;html=1;align=center;verticalAlign=middle;resizable=0;points=[];" connectable="0" vertex="1" parent="tMBw2Dmk8AOAFGk_S65z-1">
          <mxGeometry x="-0.2" y="1" relative="1" as="geometry">
            <mxPoint as="offset" />
          </mxGeometry>
        </mxCell>
        <mxCell id="tMBw2Dmk8AOAFGk_S65z-3" value="Inicio" style="ellipse;whiteSpace=wrap;html=1;" vertex="1" parent="1">
          <mxGeometry x="-328" y="138" width="120" height="80" as="geometry" />
        </mxCell>
        <mxCell id="tMBw2Dmk8AOAFGk_S65z-4" style="edgeStyle=orthogonalEdgeStyle;rounded=0;orthogonalLoop=1;jettySize=auto;html=1;entryX=0.5;entryY=0;entryDx=0;entryDy=0;" edge="1" parent="1" source="tMBw2Dmk8AOAFGk_S65z-5" target="tMBw2Dmk8AOAFGk_S65z-7">
          <mxGeometry relative="1" as="geometry" />
        </mxCell>
        <mxCell id="tMBw2Dmk8AOAFGk_S65z-5" value="Inicia sesión" style="" vertex="1" parent="1">
          <mxGeometry x="-323" y="258" width="110" height="50" as="geometry" />
        </mxCell>
        <mxCell id="tMBw2Dmk8AOAFGk_S65z-6" value="" style="edgeStyle=orthogonalEdgeStyle;rounded=0;orthogonalLoop=1;jettySize=auto;html=1;" edge="1" parent="1" source="tMBw2Dmk8AOAFGk_S65z-7" target="tMBw2Dmk8AOAFGk_S65z-12">
          <mxGeometry relative="1" as="geometry" />
        </mxCell>
        <mxCell id="tMBw2Dmk8AOAFGk_S65z-7" value="   Acceder a la sección de Registro &#xa;de glucemia&#xa;" style="" vertex="1" parent="1">
          <mxGeometry x="-361" y="348" width="186" height="124" as="geometry" />
        </mxCell>
        <mxCell id="tMBw2Dmk8AOAFGk_S65z-8" value="" style="edgeStyle=orthogonalEdgeStyle;rounded=0;orthogonalLoop=1;jettySize=auto;html=1;" edge="1" parent="1" source="tMBw2Dmk8AOAFGk_S65z-12">
          <mxGeometry relative="1" as="geometry">
            <mxPoint x="98" y="410" as="targetPoint" />
          </mxGeometry>
        </mxCell>
        <mxCell id="tMBw2Dmk8AOAFGk_S65z-9" value="Si" style="edgeLabel;html=1;align=center;verticalAlign=middle;resizable=0;points=[];" connectable="0" vertex="1" parent="tMBw2Dmk8AOAFGk_S65z-8">
          <mxGeometry x="-0.2728" relative="1" as="geometry">
            <mxPoint as="offset" />
          </mxGeometry>
        </mxCell>
        <mxCell id="tMBw2Dmk8AOAFGk_S65z-10" style="edgeStyle=orthogonalEdgeStyle;rounded=0;orthogonalLoop=1;jettySize=auto;html=1;" edge="1" parent="1" source="tMBw2Dmk8AOAFGk_S65z-12">
          <mxGeometry relative="1" as="geometry">
            <mxPoint x="-2" y="538" as="targetPoint" />
          </mxGeometry>
        </mxCell>
        <mxCell id="tMBw2Dmk8AOAFGk_S65z-11" value="No" style="edgeLabel;html=1;align=center;verticalAlign=middle;resizable=0;points=[];" connectable="0" vertex="1" parent="tMBw2Dmk8AOAFGk_S65z-10">
          <mxGeometry x="0.3" y="-2" relative="1" as="geometry">
            <mxPoint as="offset" />
          </mxGeometry>
        </mxCell>
        <mxCell id="tMBw2Dmk8AOAFGk_S65z-12" value="¿Hay registro?" style="rhombus;whiteSpace=wrap;html=1;" vertex="1" parent="1">
          <mxGeometry x="-42" y="370" width="80" height="80" as="geometry" />
        </mxCell>
        <mxCell id="tMBw2Dmk8AOAFGk_S65z-13" style="edgeStyle=orthogonalEdgeStyle;rounded=0;orthogonalLoop=1;jettySize=auto;html=1;entryX=1;entryY=0.5;entryDx=0;entryDy=0;exitX=0.5;exitY=1;exitDx=0;exitDy=0;" edge="1" parent="1" source="tMBw2Dmk8AOAFGk_S65z-14" target="tMBw2Dmk8AOAFGk_S65z-15">
          <mxGeometry relative="1" as="geometry">
            <mxPoint x="162" y="618" as="targetPoint" />
            <Array as="points">
              <mxPoint x="162" y="578" />
            </Array>
          </mxGeometry>
        </mxCell>
        <mxCell id="tMBw2Dmk8AOAFGk_S65z-14" value="Muestra Registro de glucemia" style="rounded=0;whiteSpace=wrap;html=1;" vertex="1" parent="1">
          <mxGeometry x="102" y="380" width="120" height="60" as="geometry" />
        </mxCell>
        <mxCell id="tMBw2Dmk8AOAFGk_S65z-15" value="Fin" style="ellipse;whiteSpace=wrap;html=1;" vertex="1" parent="1">
          <mxGeometry x="-62" y="538" width="120" height="80" as="geometry" />
        </mxCell>
      </root>
    </mxGraphModel>
  </diagram>
</mxfile>
